<svg xmlns="http://www.w3.org/2000/svg" xmlns:xlink="http://www.w3.org/1999/xlink" xmlns:inkscape="http://www.inkscape.org/namespaces/inkscape" version="1.1" width="231.08" height="73.39" viewBox="0 0 231.08 73.39">
<defs>
<clipPath id="clip_1">
<path transform="matrix(1,0,0,-1,0,73.39)" d="M0 73.39H231.08V0H0Z"/>
</clipPath>
</defs>
<g inkscape:groupmode="layer" inkscape:label="Vrstva 1">
<path transform="matrix(1,0,0,-1,24.293,48.8105)" d="M0 0H4.333L7.731 8.09H3.397Z" fill="#f9423a"/>
<path transform="matrix(1,0,0,-1,39.7603,32.6162)" d="M0 0-6.801-16.194H-2.467L4.333 0Z" fill="#f9423a"/>
<path transform="matrix(1,0,0,-1,51.8271,24.5186)" d="M0 0-10.201-24.292H-5.868L4.333 0Z" fill="#f9423a"/>
<g clip-path="url(#clip_1)">
<path transform="matrix(1,0,0,-1,78.417,44.8975)" d="M0 0H-4.745V16.401H0C5.056 16.401 8.358 12.921 8.358 8.166 8.358 3.411 5.056 0 0 0M0 20.261H-8.976V-3.859H0C7.566-3.859 12.795 1.412 12.795 8.235 12.795 15.057 7.566 20.261 0 20.261" fill="#f9423a"/>
<path transform="matrix(1,0,0,-1,127.8613,34.7676)" d="M0 0C-4.609 1.103-5.71 1.93-5.71 3.825-5.71 5.444-4.265 6.719-1.789 6.719 .412 6.719 2.579 5.857 4.745 4.238L7.016 7.442C4.573 9.407 1.787 10.475-1.721 10.475-6.502 10.475-9.939 7.648-9.939 3.446-9.939-1.033-7.052-2.549-1.927-3.79 2.544-4.824 3.507-5.754 3.507-7.512 3.507-9.372 1.856-10.577-.758-10.577-3.75-10.577-6.054-9.441-8.358-7.442L-10.904-10.475C-8.015-13.06-4.541-14.333-.861-14.333 4.194-14.333 7.737-11.646 7.737-7.098 7.737-3.066 5.088-1.24 0 0" fill="#f9423a"/>
<path transform="matrix(1,0,0,-1,137.6426,28.5654)" d="M0 0H7.636V-20.191H11.9V0H19.534V3.928H0Z" fill="#f9423a"/>
<path transform="matrix(1,0,0,-1,164.7988,36.5928)" d="M0 0V8.097H6.156C9.286 8.097 11.143 6.718 11.143 4.064 11.143 1.585 9.218 0 6.191 0ZM15.441 4.305C15.441 9.027 12.037 11.956 6.5 11.956H-4.23V-12.164H0V-3.757H5.296L11.212-12.164H16.198L9.698-3.033C13.069-2.103 15.441 .309 15.441 4.305" fill="#f9423a"/>
<path transform="matrix(1,0,0,-1,55.0713,29.6777)" d="M0 0 4.208-10.021H-4.209L-5.858-13.949H5.857L8.035-19.132H12.367L2.167 5.16Z" fill="#f9423a"/>
<path transform="matrix(1,0,0,-1,98.9731,39.6982)" d="M0 0 4.208 10.02 8.417 0ZM2.041 15.18-8.159-9.112H-3.827L-1.649-3.929H10.065L12.243-9.112H16.576L6.375 15.18Z" fill="#f9423a"/>
<path transform="matrix(1,0,0,-1,190.2109,39.6982)" d="M0 0 4.209 10.02 8.417 0ZM6.375 15.18H2.042L-8.159-9.112H-3.825L-1.648-3.929H10.066L12.243-9.112H16.576Z" fill="#f9423a"/>
</g>
</g>
</svg>
